<svg width="7" height="7" viewBox="0 0 7 7" fill="none" xmlns="http://www.w3.org/2000/svg">
<path fill-rule="evenodd" clip-rule="evenodd" d="M0.157654 0.164386C0.258631 0.0634401 0.395566 0.00673174 0.538346 0.00673174C0.681127 0.00673174 0.818062 0.0634401 0.919039 0.164386L3.23065 2.476L5.54227 0.164386C5.59194 0.112957 5.65136 0.0719362 5.71705 0.043716C5.78275 0.0154958 5.8534 0.000641616 5.9249 2.03307e-05C5.9964 -0.000600955 6.0673 0.0130229 6.13348 0.0400972C6.19965 0.0671716 6.25977 0.107154 6.31033 0.157712C6.36089 0.208269 6.40087 0.26839 6.42794 0.334565C6.45502 0.400739 6.46864 0.471644 6.46802 0.54314C6.4674 0.614637 6.45254 0.685294 6.42432 0.750988C6.3961 0.816683 6.35508 0.876099 6.30365 0.92577L3.99204 3.23739L6.30365 5.549C6.40174 5.65056 6.45601 5.78657 6.45479 5.92776C6.45356 6.06894 6.39693 6.20399 6.29709 6.30383C6.19726 6.40366 6.06221 6.46029 5.92102 6.46152C5.77984 6.46274 5.64382 6.40847 5.54227 6.31039L3.23065 3.99877L0.919039 6.31039C0.817484 6.40847 0.681467 6.46274 0.540284 6.46152C0.399101 6.46029 0.264049 6.40366 0.164213 6.30383C0.0643783 6.20399 0.00774876 6.06894 0.00652192 5.92776C0.00529508 5.78657 0.0595692 5.65056 0.157654 5.549L2.46927 3.23739L0.157654 0.92577C0.0567084 0.824794 0 0.687859 0 0.545078C0 0.402298 0.0567084 0.265363 0.157654 0.164386Z" fill="#475569"/>
</svg>
