<svg width="40" height="40" viewBox="0 0 40 40" fill="none" xmlns="http://www.w3.org/2000/svg">
<rect x="0.5" y="0.5" width="39" height="39" rx="19.5" fill="#F8FAFC"/>
<rect x="0.5" y="0.5" width="39" height="39" rx="19.5" stroke="#6A8A2A"/>
<path d="M25 28H30V26C30 25.3765 29.8057 24.7686 29.4441 24.2606C29.0826 23.7527 28.5718 23.37 27.9827 23.1657C27.3937 22.9615 26.7556 22.9459 26.1573 23.121C25.5589 23.2962 25.03 23.6534 24.644 24.143M25 28H15M25 28V26C25 25.344 24.874 24.717 24.644 24.143M24.644 24.143C24.2726 23.215 23.6318 22.4195 22.804 21.8591C21.9762 21.2988 20.9996 20.9993 20 20.9993C19.0004 20.9993 18.0238 21.2988 17.196 21.8591C16.3682 22.4195 15.7274 23.215 15.356 24.143M15 28H10V26C10 25.3765 10.1943 24.7686 10.5559 24.2606C10.9174 23.7527 11.4282 23.37 12.0173 23.1657C12.6063 22.9615 13.2444 22.9459 13.8427 23.121C14.4411 23.2962 14.97 23.6534 15.356 24.143M15 28V26C15 25.344 15.126 24.717 15.356 24.143M23 15C23 15.7956 22.6839 16.5587 22.1213 17.1213C21.5587 17.6839 20.7956 18 20 18C19.2043 18 18.4413 17.6839 17.8787 17.1213C17.3161 16.5587 17 15.7956 17 15C17 14.2044 17.3161 13.4413 17.8787 12.8787C18.4413 12.3161 19.2043 12 20 12C20.7956 12 21.5587 12.3161 22.1213 12.8787C22.6839 13.4413 23 14.2044 23 15ZM29 18C29 18.5304 28.7893 19.0391 28.4142 19.4142C28.0391 19.7893 27.5304 20 27 20C26.4696 20 25.9609 19.7893 25.5858 19.4142C25.2107 19.0391 25 18.5304 25 18C25 17.4696 25.2107 16.9609 25.5858 16.5858C25.9609 16.2107 26.4696 16 27 16C27.5304 16 28.0391 16.2107 28.4142 16.5858C28.7893 16.9609 29 17.4696 29 18ZM15 18C15 18.5304 14.7893 19.0391 14.4142 19.4142C14.0391 19.7893 13.5304 20 13 20C12.4696 20 11.9609 19.7893 11.5858 19.4142C11.2107 19.0391 11 18.5304 11 18C11 17.4696 11.2107 16.9609 11.5858 16.5858C11.9609 16.2107 12.4696 16 13 16C13.5304 16 14.0391 16.2107 14.4142 16.5858C14.7893 16.9609 15 17.4696 15 18Z" stroke="#6A8A2A" stroke-linecap="round" stroke-linejoin="round"/>
</svg>
