<svg width="41" height="40" viewBox="0 0 41 40" fill="none" xmlns="http://www.w3.org/2000/svg">
<rect x="0.833252" y="0.5" width="39" height="39" rx="19.5" fill="#F8FAFC"/>
<rect x="0.833252" y="0.5" width="39" height="39" rx="19.5" stroke="#6A8A2A"/>
<path d="M25.3333 17V15C25.3333 14.4696 25.1225 13.9609 24.7475 13.5858C24.3724 13.2107 23.8637 13 23.3333 13H13.3333C12.8028 13 12.2941 13.2107 11.919 13.5858C11.544 13.9609 11.3333 14.4696 11.3333 15V21C11.3333 21.5304 11.544 22.0391 11.919 22.4142C12.2941 22.7893 12.8028 23 13.3333 23H15.3333M17.3333 27H27.3333C27.8637 27 28.3724 26.7893 28.7475 26.4142C29.1225 26.0391 29.3333 25.5304 29.3333 25V19C29.3333 18.4696 29.1225 17.9609 28.7475 17.5858C28.3724 17.2107 27.8637 17 27.3333 17H17.3333C16.8028 17 16.2941 17.2107 15.919 17.5858C15.544 17.9609 15.3333 18.4696 15.3333 19V25C15.3333 25.5304 15.544 26.0391 15.919 26.4142C16.2941 26.7893 16.8028 27 17.3333 27ZM24.3333 22C24.3333 22.5304 24.1225 23.0391 23.7475 23.4142C23.3724 23.7893 22.8637 24 22.3333 24C21.8028 24 21.2941 23.7893 20.919 23.4142C20.544 23.0391 20.3333 22.5304 20.3333 22C20.3333 21.4696 20.544 20.9609 20.919 20.5858C21.2941 20.2107 21.8028 20 22.3333 20C22.8637 20 23.3724 20.2107 23.7475 20.5858C24.1225 20.9609 24.3333 21.4696 24.3333 22Z" stroke="#6A8A2A" stroke-linecap="round" stroke-linejoin="round"/>
</svg>
