<svg width="41" height="40" viewBox="0 0 41 40" fill="none" xmlns="http://www.w3.org/2000/svg">
<rect x="1.1665" y="0.5" width="39" height="39" rx="19.5" fill="#F8FAFC"/>
<rect x="1.1665" y="0.5" width="39" height="39" rx="19.5" stroke="#6A8A2A"/>
<path d="M25.6665 16H27.6665C28.1969 16 28.7056 16.2107 29.0807 16.5858C29.4558 16.9609 29.6665 17.4696 29.6665 18V24C29.6665 24.5304 29.4558 25.0391 29.0807 25.4142C28.7056 25.7893 28.1969 26 27.6665 26H25.6665V30L21.6665 26H17.6665C17.4038 26.0003 17.1437 25.9486 16.901 25.8481C16.6584 25.7475 16.438 25.6 16.2525 25.414M16.2525 25.414L19.6665 22H23.6665C24.1969 22 24.7056 21.7893 25.0807 21.4142C25.4558 21.0391 25.6665 20.5304 25.6665 20V14C25.6665 13.4696 25.4558 12.9609 25.0807 12.5858C24.7056 12.2107 24.1969 12 23.6665 12H13.6665C13.1361 12 12.6274 12.2107 12.2523 12.5858C11.8772 12.9609 11.6665 13.4696 11.6665 14V20C11.6665 20.5304 11.8772 21.0391 12.2523 21.4142C12.6274 21.7893 13.1361 22 13.6665 22H15.6665V26L16.2525 25.414Z" stroke="#6A8A2A" stroke-linecap="round" stroke-linejoin="round"/>
</svg>
