<svg width="336" height="314" viewBox="0 0 336 314" fill="none" xmlns="http://www.w3.org/2000/svg">
<g clip-path="url(#clip0_1_170)">
<path d="M256.035 74.6183H254.311V27.3549C254.311 20.0999 251.431 13.1421 246.304 8.01207C241.177 2.88203 234.223 0 226.973 0H126.901C119.651 0 112.697 2.88203 107.57 8.01207C102.443 13.1421 99.5627 20.0999 99.5627 27.3549V286.645C99.5627 293.9 102.443 300.858 107.57 305.988C112.697 311.118 119.651 314 126.901 314H226.975C234.225 314 241.179 311.118 246.306 305.988C251.433 300.858 254.313 293.9 254.313 286.645V108.261H256.035V74.6183Z" fill="#3F3D56"/>
<path d="M248.739 25.5245V288.477C248.738 293.977 246.554 299.253 242.668 303.142C238.781 307.032 233.509 309.219 228.012 309.221H125.882C120.383 309.221 115.108 307.036 111.219 303.145C107.33 299.255 105.144 293.978 105.143 288.475V25.5245C105.145 20.022 107.33 14.7455 111.22 10.8555C115.109 6.96551 120.383 4.78053 125.882 4.78114H138.271C137.663 6.278 137.431 7.90144 137.597 9.50878C137.763 11.1161 138.32 12.6581 139.221 13.9993C140.122 15.3405 141.338 16.4397 142.763 17.2005C144.187 17.9612 145.777 18.3601 147.392 18.3621H205.617C207.232 18.3599 208.821 17.9608 210.246 17.1998C211.671 16.4389 212.887 15.3394 213.787 13.998C214.688 12.6567 215.245 11.1145 215.411 9.50702C215.576 7.89957 215.344 6.2761 214.736 4.7793H228.006C233.503 4.78028 238.775 6.96547 242.663 10.8545C246.55 14.7435 248.735 20.018 248.737 25.5185L248.739 25.5245Z" fill="#E6E6E6"/>
<path d="M237.857 295.495H116.025C114.985 295.494 113.988 295.08 113.252 294.344C112.517 293.608 112.103 292.61 112.102 291.57V35.2907C112.103 34.2501 112.517 33.2524 113.252 32.5166C113.988 31.7808 114.985 31.3669 116.025 31.3657H237.857C238.897 31.3669 239.894 31.7808 240.63 32.5166C241.365 33.2524 241.779 34.2501 241.78 35.2907V291.57C241.779 292.61 241.365 293.608 240.63 294.344C239.894 295.08 238.897 295.494 237.857 295.495Z" fill="white"/>
<path d="M176.48 117.892C195.018 117.892 210.046 102.854 210.046 84.3046C210.046 65.7551 195.018 50.7178 176.48 50.7178C157.941 50.7178 142.913 65.7551 142.913 84.3046C142.913 102.854 157.941 117.892 176.48 117.892Z" fill="#E6E6E6"/>
<path d="M176.018 113.344C192.047 113.344 205.04 100.343 205.04 84.3045C205.04 68.2662 192.047 55.2646 176.018 55.2646C159.989 55.2646 146.996 68.2662 146.996 84.3045C146.996 100.343 159.989 113.344 176.018 113.344Z" fill="white"/>
<path d="M176.664 67.8335C173.391 67.8335 170.192 68.8045 167.471 70.6239C164.75 72.4432 162.629 75.029 161.377 78.0544C160.124 81.0798 159.796 84.4089 160.435 87.6206C161.073 90.8324 162.649 93.7825 164.963 96.0981C167.278 98.4136 170.226 99.9905 173.436 100.629C176.646 101.268 179.973 100.94 182.996 99.6872C186.02 98.434 188.604 96.3119 190.422 93.5891C192.241 90.8663 193.211 87.6652 193.211 84.3905C193.211 79.9993 191.468 75.788 188.365 72.6829C185.261 69.5779 181.053 67.8335 176.664 67.8335ZM176.664 72.8007C177.646 72.8007 178.606 73.092 179.422 73.6378C180.238 74.1836 180.875 74.9594 181.25 75.867C181.626 76.7747 181.724 77.7734 181.533 78.7369C181.341 79.7005 180.868 80.5855 180.174 81.2802C179.48 81.9749 178.595 82.448 177.632 82.6396C176.67 82.8313 175.671 82.7329 174.764 82.357C173.857 81.981 173.082 81.3444 172.536 80.5275C171.991 79.7107 171.7 78.7503 171.7 77.7679C171.7 77.1156 171.828 76.4697 172.078 75.867C172.327 75.2644 172.693 74.7168 173.154 74.2555C173.615 73.7943 174.162 73.4284 174.764 73.1788C175.367 72.9292 176.012 72.8007 176.664 72.8007ZM176.664 96.7127C174.703 96.7037 172.774 96.2162 171.044 95.2924C169.313 94.3685 167.835 93.0363 166.736 91.4112C166.815 88.0999 173.354 86.2768 176.664 86.2768C179.974 86.2768 186.513 88.0999 186.592 91.4112C185.492 93.0353 184.013 94.3669 182.283 95.2909C180.554 96.2148 178.625 96.7033 176.664 96.7141V96.7127Z" fill="#6A8A2A"/>
<path d="M204.182 129.178H146.109V133.546H204.182V129.178Z" fill="#E6E6E6"/>
<path d="M211.424 140.527H138.339V144.894H211.424V140.527Z" fill="#E6E6E6"/>
<path d="M228.418 173.126H125.464V276.143H228.418V173.126Z" fill="#E6E6E6"/>
<path d="M225.699 175.305H127.101V273.964H225.699V175.305Z" fill="white"/>
<path d="M185.787 184.829H147.406V187.715H185.787V184.829Z" fill="#E6E6E6"/>
<path d="M206.674 193.303H147.406V196.189H206.674V193.303Z" fill="#6A8A2A"/>
<path d="M196.324 201.373H148.022V204.26H196.324V201.373Z" fill="#E6E6E6"/>
<path d="M175.604 210.228H147.406V213.115H175.604V210.228Z" fill="#E6E6E6"/>
<path d="M189.964 218.877H147.406V221.764H189.964V218.877Z" fill="#6A8A2A"/>
<path d="M185.787 227.581H147.406V230.467H185.787V227.581Z" fill="#E6E6E6"/>
<path d="M206.674 236.055H147.406V238.941H206.674V236.055Z" fill="#6A8A2A"/>
<path d="M196.324 244.125H148.022V247.011H196.324V244.125Z" fill="#E6E6E6"/>
<path d="M175.604 252.98H147.406V255.866H175.604V252.98Z" fill="#E6E6E6"/>
<path d="M189.964 261.629H147.406V264.516H189.964V261.629Z" fill="#E6E6E6"/>
<path d="M319.703 223.967C319.429 224.448 319.062 224.87 318.624 225.209C318.187 225.548 317.687 225.797 317.153 225.942C316.619 226.088 316.062 226.127 315.513 226.057C314.964 225.987 314.434 225.81 313.954 225.535C313.474 225.26 313.052 224.893 312.714 224.455C312.375 224.017 312.126 223.517 311.98 222.983C311.835 222.449 311.796 221.891 311.866 221.342C311.936 220.793 312.113 220.263 312.388 219.782C312.397 219.766 312.407 219.749 312.416 219.733C312.534 219.536 312.667 219.347 312.813 219.17L309.269 193.893L309.163 193.135L308.443 187.978L308.337 187.234L308.729 187.253L315.596 187.567L317.437 187.65L317.668 192.355L318.974 218.81C319.656 219.463 320.099 220.327 320.232 221.262C320.364 222.198 320.178 223.151 319.703 223.967Z" fill="#FFB8B8"/>
<path d="M309.183 193.365L317.903 192.564C318.355 192.521 318.772 192.301 319.063 191.952C319.354 191.603 319.495 191.153 319.455 190.7L317.84 172.557C317.763 171.691 317.516 170.85 317.114 170.08C316.712 169.31 316.162 168.627 315.496 168.07C314.83 167.512 314.061 167.092 313.232 166.832C312.404 166.572 311.532 166.478 310.667 166.556C309.803 166.633 308.961 166.88 308.192 167.282C307.423 167.685 306.74 168.235 306.183 168.902C305.626 169.568 305.206 170.338 304.946 171.167C304.687 171.996 304.593 172.868 304.67 173.733C304.681 173.858 304.696 173.983 304.714 174.107L307.329 191.903C307.389 192.311 307.593 192.683 307.905 192.953C308.216 193.223 308.614 193.371 309.026 193.372C309.079 193.373 309.131 193.37 309.183 193.365Z" fill="#6A8A2A"/>
<path d="M315.793 178.707C316.675 176.207 316.715 173.488 315.909 170.963C315.103 168.438 313.493 166.246 311.326 164.721C308.038 162.47 303.538 161.662 298.693 167.434C289.001 178.978 286.463 191.676 286.463 191.676L306.307 194.909C306.307 194.909 313.056 186.655 315.793 178.707Z" fill="#6A8A2A"/>
<path d="M283.698 308.742H278.04L275.348 286.906H283.699L283.698 308.742Z" fill="#FFB8B8"/>
<path d="M267.13 313.999H284.911V307.124H274C272.178 307.124 270.43 307.849 269.142 309.138C267.854 310.427 267.13 312.175 267.13 313.999Z" fill="#2F2E41"/>
<path d="M330.213 303.805L324.841 305.582L315.436 285.694L323.364 283.072L330.213 303.805Z" fill="#FFB8B8"/>
<path d="M316.129 313.998L333.013 308.415L330.857 301.888L320.496 305.314C319.64 305.597 318.847 306.047 318.164 306.637C317.481 307.226 316.921 307.945 316.515 308.751C316.11 309.558 315.867 310.436 315.801 311.337C315.735 312.237 315.846 313.141 316.129 313.998Z" fill="#2F2E41"/>
<path d="M303.336 158.996C309.596 158.996 314.67 153.918 314.67 147.654C314.67 141.39 309.596 136.313 303.336 136.313C297.076 136.313 292.001 141.39 292.001 147.654C292.001 153.918 297.076 158.996 303.336 158.996Z" fill="#FFB8B8"/>
<path d="M293.411 302.664L298.666 267.965C298.722 267.594 298.904 267.255 299.183 267.005C299.461 266.754 299.818 266.609 300.192 266.592C300.566 266.576 300.934 266.69 301.233 266.915C301.532 267.14 301.744 267.462 301.832 267.826L309.833 300.894C309.96 301.401 310.27 301.842 310.705 302.131C311.139 302.42 311.666 302.537 312.181 302.457L334.252 298.908C334.545 298.861 334.824 298.752 335.071 298.588C335.318 298.424 335.527 298.209 335.684 297.957C335.841 297.706 335.943 297.424 335.982 297.13C336.021 296.836 335.996 296.537 335.91 296.253L307.131 201.314C307.05 201.044 307.04 200.758 307.103 200.483L308.061 196.327C308.167 195.877 308.118 195.404 307.923 194.984C307.729 194.565 307.399 194.222 306.987 194.012C303.069 192.011 293.143 187.851 285.653 192.408C285.409 192.556 285.199 192.752 285.034 192.985C284.869 193.217 284.753 193.481 284.693 193.759L262.211 299.489C262.15 299.777 262.151 300.074 262.213 300.361C262.275 300.649 262.397 300.92 262.572 301.156C262.746 301.393 262.969 301.589 263.225 301.733C263.481 301.877 263.765 301.965 264.057 301.992L291.173 304.421C291.234 304.427 291.296 304.43 291.357 304.43C291.854 304.429 292.334 304.25 292.71 303.926C293.087 303.603 293.335 303.155 293.41 302.664L293.411 302.664Z" fill="#2F2E41"/>
<path d="M310.851 139.641C309.997 139.127 309.239 138.467 308.611 137.692C308.301 137.301 308.097 136.836 308.018 136.343C307.94 135.849 307.99 135.344 308.163 134.876C308.736 133.611 310.438 133.213 311.756 133.642C313.075 134.071 314.094 135.107 315.057 136.105C315.906 136.982 316.779 137.902 317.18 139.056C317.581 140.21 317.376 141.673 316.375 142.374C315.392 143.061 313.979 142.78 313.033 142.042C312.088 141.304 311.503 140.209 310.945 139.147L310.851 139.641Z" fill="#2F2E41"/>
<path d="M314.691 136.41C314.753 133.214 318.394 130.922 321.538 131.489C324.682 132.056 327.098 134.738 328.308 137.696C330.863 143.946 328.945 151.077 326.482 157.367C324.02 163.656 320.972 170.037 321.332 176.781C321.575 180.426 322.797 183.937 324.87 186.944C326.942 189.952 329.788 192.343 333.107 193.866C329.559 195.475 325.318 193.813 322.336 191.304C315.715 185.733 313.159 175.814 316.262 167.734C317.793 163.748 320.491 160.339 322.597 156.626C324.703 152.913 326.249 148.536 325.161 144.408C324.074 140.279 319.446 136.937 315.489 138.534L314.691 136.41Z" fill="#2F2E41"/>
<path d="M302.656 152.687C303.644 151.016 304.64 148.823 302.835 147.362C302.442 147.059 301.993 146.838 301.514 146.711C301.034 146.584 300.534 146.554 300.043 146.623C298.007 146.869 295.789 146.97 293.818 146.23C293.079 145.975 292.399 145.575 291.817 145.052C291.236 144.529 290.765 143.895 290.433 143.186C289.418 140.774 290.69 137.843 292.817 136.318C294.118 135.419 295.656 134.925 297.237 134.897C298.818 134.869 300.372 135.308 301.704 136.161C304.459 134.943 307.802 135.485 310.305 137.161C312.808 138.837 314.521 141.521 315.451 144.388C316.308 146.855 316.456 149.513 315.877 152.06C315.411 153.831 314.526 155.465 313.296 156.822C312.065 158.178 310.526 159.218 308.809 159.854C308.14 160.118 307.414 160.201 306.702 160.096C305.991 159.991 305.32 159.7 304.756 159.254C304.756 159.254 303.194 157.889 302.705 156.246C302.329 154.982 302.128 153.579 302.656 152.687Z" fill="#2F2E41"/>
<path d="M269.031 162.807C269.088 163.056 269.125 163.309 269.141 163.564L288.965 175.008L293.784 172.232L298.921 178.961L290.868 184.704C290.217 185.168 289.433 185.409 288.635 185.389C287.836 185.37 287.065 185.091 286.437 184.596L265.994 168.459C265.071 168.801 264.066 168.854 263.112 168.611C262.159 168.367 261.302 167.839 260.656 167.096C260.01 166.354 259.605 165.432 259.495 164.453C259.385 163.474 259.576 162.486 260.042 161.618C260.508 160.751 261.226 160.046 262.102 159.597C262.978 159.148 263.97 158.977 264.946 159.106C265.921 159.235 266.834 159.658 267.564 160.319C268.293 160.981 268.804 161.848 269.028 162.807H269.031Z" fill="#FFB8B8"/>
<path d="M289.629 175.55L296.036 183.859C296.218 184.095 296.449 184.289 296.713 184.428C296.977 184.566 297.268 184.647 297.566 184.663C297.863 184.679 298.161 184.631 298.439 184.522C298.716 184.413 298.967 184.246 299.174 184.031L306.427 176.494C307.655 175.58 308.469 174.216 308.691 172.701C308.913 171.187 308.524 169.646 307.611 168.418C306.698 167.19 305.334 166.375 303.82 166.153C302.306 165.931 300.767 166.319 299.539 167.233C299.477 167.28 299.415 167.328 299.354 167.377L290.257 172.467C289.997 172.613 289.771 172.813 289.595 173.054C289.419 173.295 289.297 173.571 289.237 173.864C289.177 174.156 289.181 174.458 289.248 174.749C289.316 175.04 289.445 175.313 289.627 175.55L289.629 175.55Z" fill="#6A8A2A"/>
<path d="M57.0864 195.353C56.86 195.456 56.6423 195.578 56.4353 195.716L35.7367 186.877L34.9983 181.421L26.7275 181.37L27.2162 193.884L54.5363 201.114C54.5938 201.304 54.6629 201.49 54.743 201.672C55.138 202.515 55.7733 203.223 56.569 203.706C57.3647 204.19 58.2854 204.427 59.2154 204.388C60.1455 204.35 61.0434 204.037 61.7964 203.49C62.5495 202.942 63.124 202.184 63.448 201.311C63.7719 200.438 63.8308 199.488 63.6172 198.582C63.4036 197.675 62.9271 196.852 62.2475 196.216C61.5678 195.579 60.7154 195.158 59.7973 195.005C58.8792 194.851 57.9362 194.973 57.0869 195.354L57.0864 195.353Z" fill="#A0616A"/>
<path d="M23.7197 308.743H29.3775L32.0689 286.907H23.7188L23.7197 308.743Z" fill="#A0616A"/>
<path d="M33.4187 307.125H22.5073V313.997H40.2889C40.2889 312.174 39.5651 310.426 38.2766 309.136C36.9882 307.847 35.2408 307.123 33.4187 307.123V307.125Z" fill="#2F2E41"/>
<path d="M1.71606 307.143L7.34621 307.697L12.1646 286.231L3.85459 285.414L1.71606 307.143Z" fill="#A0616A"/>
<path d="M11.5301 306.486L0.673273 305.416L0 312.256L17.6922 314C17.7806 313.101 17.6913 312.195 17.4295 311.331C17.1676 310.467 16.7383 309.663 16.1661 308.966C15.5938 308.268 14.8899 307.69 14.0943 307.264C13.2988 306.839 12.4278 306.575 11.5301 306.486Z" fill="#2F2E41"/>
<path d="M22.1446 158.26C28.4045 158.26 33.4792 153.183 33.4792 146.919C33.4792 140.655 28.4045 135.578 22.1446 135.578C15.8847 135.578 10.8101 140.655 10.8101 146.919C10.8101 153.183 15.8847 158.26 22.1446 158.26Z" fill="#A0616A"/>
<path d="M30.6419 304.327C31.1283 304.328 31.5995 304.158 31.9723 303.845C32.3451 303.532 32.5955 303.098 32.6794 302.619C35.6057 286.356 45.1801 233.169 45.409 231.695C45.4142 231.661 45.4166 231.627 45.4164 231.592V227.627C45.4168 227.482 45.3718 227.341 45.2877 227.224L44.0232 225.452C43.9631 225.367 43.8842 225.296 43.7927 225.246C43.7012 225.196 43.5994 225.168 43.4952 225.163C36.2859 224.825 12.6753 223.834 11.5345 225.26C10.3891 226.691 10.7962 231.035 10.8885 231.891L10.8838 231.98L0.276577 299.859C0.193487 300.4 0.326797 300.953 0.647655 301.397C0.968514 301.84 1.45111 302.14 1.991 302.23L8.6161 303.322C9.10951 303.402 9.61497 303.301 10.0405 303.039C10.4661 302.777 10.7835 302.371 10.9351 301.894C12.9841 295.343 19.8551 273.303 22.2364 264.774C22.2516 264.721 22.2858 264.674 22.3326 264.644C22.3793 264.613 22.4355 264.601 22.4908 264.609C22.546 264.617 22.5965 264.644 22.633 264.686C22.6695 264.729 22.6894 264.783 22.6891 264.838C22.5701 272.968 22.2826 293.709 22.1815 300.873L22.1709 301.645C22.1665 302.167 22.3581 302.672 22.7078 303.06C23.0576 303.448 23.54 303.69 24.0597 303.739L30.4481 304.318C30.5125 304.325 30.5772 304.327 30.6419 304.327Z" fill="#2F2E41"/>
<path d="M29.3382 162.72C31.3161 163.897 32.4998 166.059 33.1791 168.261C34.4365 172.335 35.1934 176.546 35.433 180.802L36.1511 193.547L45.037 227.334C37.3353 233.855 32.893 232.373 22.5252 227.039C12.1575 221.706 10.9733 228.818 10.9733 228.818L8.9003 200.069L5.93848 168.654C6.60343 167.853 7.35605 167.129 8.18222 166.496C10.9199 164.365 14.1051 162.884 17.4979 162.165C20.8906 161.445 24.4024 161.505 27.7686 162.34L29.3382 162.72Z" fill="#E6E6E6"/>
<path d="M32.2243 202.176C31.9854 202.266 31.754 202.374 31.5321 202.499L11.0652 192.248L10.7255 186.695L2.28307 186.113L1.83081 198.771L29.1813 207.822C29.4044 208.781 29.9141 209.649 30.6425 210.311C31.3709 210.973 32.2835 211.398 33.2589 211.528C34.2343 211.658 35.2263 211.488 36.1028 211.041C36.9794 210.593 37.699 209.889 38.1659 209.023C38.6328 208.156 38.8249 207.167 38.7166 206.189C38.6083 205.21 38.2048 204.288 37.5597 203.544C36.9146 202.8 36.0585 202.271 35.1053 202.026C34.1522 201.781 33.1471 201.833 32.2238 202.173L32.2243 202.176Z" fill="#A0616A"/>
<path d="M6.08629 168.796C1.05101 170.574 0.163574 189.84 0.163574 189.84C6.08768 186.58 13.1964 191.915 13.1964 191.915C13.1964 191.915 14.6773 186.876 16.4545 180.356C16.9912 178.522 17.0553 176.582 16.6411 174.716C16.2268 172.851 15.3476 171.121 14.0852 169.686C14.0852 169.686 11.1221 167.017 6.08629 168.796Z" fill="#E6E6E6"/>
<path d="M11.9836 149.919C13.3958 148.788 15.3225 150.842 15.3225 150.842L16.4522 140.669C16.4522 140.669 23.5129 141.516 28.0327 140.387C32.5525 139.258 33.2581 144.485 33.2581 144.485C33.4911 142.373 33.5384 140.245 33.3993 138.126C33.1169 135.582 29.4453 133.038 22.949 131.343C16.4526 129.647 13.0635 136.995 13.0635 136.995C8.54187 139.256 10.5696 151.049 11.9836 149.919Z" fill="#2F2E41"/>
</g>
<defs>
<clipPath id="clip0_1_170">
<rect width="336" height="314" fill="white"/>
</clipPath>
</defs>
</svg>
